# xmcd
#
# Track frame offsets: 
#        150
#        28522
#        52461
#        68188
#        88893
#        123861
#        145216
#        170901
#        188017
#        203692
#        233308
#        251679
#
# Disc length: 3639 seconds
#
# Revision: 0
# Processed by: cddbd v1.5.2PL0 Copyright (c) Steve Scherf et al.
# Submitted via: ExactAudioCopy v0.99pb5
#
DISCID=aa0e350c
DTITLE=Kasa Chorych - Orla
DYEAR=2014
DGENRE=Blues
TTITLE0=01.Bia³y Blues
TTITLE1=02.O Cz³owieku
TTITLE2=03.Przez Jedn¹ Noc
TTITLE3=04.O Kobiecie
TTITLE4=05.Blues Le¿¹cego
TTITLE5=06.Musisz Wiedzieæ
TTITLE6=07.O Nim
TTITLE7=08.Po Co?
TTITLE8=09.Niespodzianka
TTITLE9=10.Dok¹d Mnie Prowadzisz?
TTITLE10=11.Zawsze Znajdê Czas
TTITLE11=12.Dwa Razy M
EXTD=
EXTT0=
EXTT1=
EXTT2=
EXTT3=
EXTT4=
EXTT5=
EXTT6=
EXTT7=
EXTT8=
EXTT9=
EXTT10=
EXTT11=
PLAYORDER=
